<svg xmlns="http://www.w3.org/2000/svg" version="1.1" xmlns:xlink="http://www.w3.org/1999/xlink" xmlns:svgjs="http://svgjs.dev/svgjs" width="2000" height="186" viewBox="0 0 2000 186"><g transform="matrix(1,0,0,1,-1.2121212121212466,-1.4681916551620873)"><svg viewBox="0 0 396 37" data-background-color="#ffffff" preserveAspectRatio="xMidYMid meet" height="186" width="2000" xmlns="http://www.w3.org/2000/svg" xmlns:xlink="http://www.w3.org/1999/xlink"><g id="tight-bounds" transform="matrix(1,0,0,1,0.2400000000000091,0.292059630327941)"><svg viewBox="0 0 395.52 36.41588073934412" height="36.41588073934412" width="395.52"><g><svg viewBox="0 0 495.30302631978157 45.602993366447684" height="36.41588073934412" width="395.52"><g><rect width="4.092064680672047" height="45.602993366447684" x="84.9787504331618" y="0" fill="#152232" opacity="1" stroke-width="0" stroke="transparent" fill-opacity="1" class="rect-yte-0" data-fill-palette-color="primary" rx="1%" id="yte-0" data-palette-color="#152232"></rect></g><g transform="matrix(1,0,0,1,99.78302631978163,0.11344028200608491)"><svg viewBox="0 0 395.52 45.376112802435514" height="45.376112802435514" width="395.52"><g id="textblocktransform"><svg viewBox="0 0 395.52 45.376112802435514" height="45.376112802435514" width="395.52" id="textblock"><g><svg viewBox="0 0 395.52 45.376112802435514" height="45.376112802435514" width="395.52"><g transform="matrix(1,0,0,1,0,0)"><svg width="395.52" viewBox="0.7 -35.3 312.01 35.8" height="45.376112802435514" data-palette-color="#152232"><path d="M10.5 0.5L10.5 0.5Q7.8 0.5 5.58-0.88 3.35-2.25 2.02-4.53 0.7-6.8 0.7-9.55L0.7-9.55 0.7-11.85Q0.7-12.1 0.95-12.1L0.95-12.1 6.55-12.1Q6.75-12.1 6.75-11.85L6.75-11.85 6.75-9.55Q6.75-7.9 7.85-6.73 8.95-5.55 10.5-5.55L10.5-5.55Q12.05-5.55 13.15-6.75 14.25-7.95 14.25-9.55L14.25-9.55Q14.25-11.4 11.85-12.75L11.85-12.75Q11.05-13.2 9.35-14.15 7.65-15.1 6.15-15.95L6.15-15.95Q3.4-17.55 2.08-19.98 0.75-22.4 0.75-25.45L0.75-25.45Q0.75-28.25 2.1-30.48 3.45-32.7 5.68-34 7.9-35.3 10.5-35.3L10.5-35.3Q13.15-35.3 15.38-33.98 17.6-32.65 18.93-30.43 20.25-28.2 20.25-25.45L20.25-25.45 20.25-21.35Q20.25-21.15 20.05-21.15L20.05-21.15 14.45-21.15Q14.25-21.15 14.25-21.35L14.25-21.35 14.2-25.45Q14.2-27.2 13.1-28.3 12-29.4 10.5-29.4L10.5-29.4Q8.95-29.4 7.85-28.23 6.75-27.05 6.75-25.45L6.75-25.45Q6.75-23.8 7.45-22.7 8.15-21.6 10-20.6L10-20.6Q10.25-20.45 10.98-20.08 11.7-19.7 12.55-19.23 13.4-18.75 14.08-18.4 14.75-18.05 14.9-17.95L14.9-17.95Q17.4-16.55 18.85-14.53 20.3-12.5 20.3-9.55L20.3-9.55Q20.3-6.7 18.98-4.42 17.65-2.15 15.43-0.83 13.2 0.5 10.5 0.5ZM33 0.5L33 0.5Q30.35 0.5 28.1-0.88 25.85-2.25 24.52-4.55 23.2-6.85 23.2-9.6L23.2-9.6 23.3-34.6Q23.3-34.8 23.5-34.8L23.5-34.8 29.1-34.8Q29.3-34.8 29.3-34.6L29.3-34.6 29.3-9.6Q29.3-7.9 30.37-6.73 31.45-5.55 33-5.55L33-5.55Q34.6-5.55 35.67-6.73 36.75-7.9 36.75-9.6L36.75-9.6 36.75-34.6Q36.75-34.8 36.95-34.8L36.95-34.8 42.55-34.8Q42.75-34.8 42.75-34.6L42.75-34.6 42.85-9.6Q42.85-6.8 41.52-4.5 40.2-2.2 37.97-0.85 35.75 0.5 33 0.5ZM52.65 0L47 0Q46.8 0 46.8-0.25L46.8-0.25 46.9-34.6Q46.9-34.8 47.09-34.8L47.09-34.8 53.2-34.8Q53.4-34.8 53.55-34.6L53.55-34.6 58.09-28 62.65-34.6Q62.8-34.8 63-34.8L63-34.8 69.15-34.8Q69.34-34.8 69.34-34.6L69.34-34.6 69.45-0.25Q69.45 0 69.25 0L69.25 0 63.59 0Q63.4 0 63.4-0.25L63.4-0.25 63.34-25.75 58.09-18.15 52.9-25.75 52.84-0.25Q52.84 0 52.65 0L52.65 0ZM71.94-0.25L71.94-0.25 78.14-34.6Q78.19-34.8 78.39-34.8L78.39-34.8 85.64-34.8Q85.84-34.8 85.89-34.6L85.89-34.6 91.84-0.25Q91.89 0 91.64 0L91.64 0 86.09 0Q85.89 0 85.84-0.25L85.84-0.25 85.29-3.9 78.49-3.9 77.94-0.25Q77.89 0 77.69 0L77.69 0 72.14 0Q71.94 0 71.94-0.25ZM81.74-23.3L79.49-9.25 84.29-9.25 82.24-23.3 81.94-25.15 81.74-23.3ZM93.39-0.25L93.39-0.25 99.59-34.6Q99.64-34.8 99.84-34.8L99.84-34.8 107.09-34.8Q107.29-34.8 107.34-34.6L107.34-34.6 113.29-0.25Q113.34 0 113.09 0L113.09 0 107.54 0Q107.34 0 107.29-0.25L107.29-0.25 106.74-3.9 99.94-3.9 99.39-0.25Q99.34 0 99.14 0L99.14 0 93.59 0Q93.39 0 93.39-0.25ZM103.19-23.3L100.94-9.25 105.74-9.25 103.69-23.3 103.39-25.15 103.19-23.3ZM124.64 0L118.89 0Q118.74 0 118.74-0.2L118.74-0.2 118.79-14.4 112.09-34.6Q112.04-34.8 112.24-34.8L112.24-34.8 117.79-34.8Q118.04-34.8 118.09-34.6L118.09-34.6 121.79-21.15 125.54-34.6Q125.59-34.8 125.79-34.8L125.79-34.8 131.39-34.8Q131.59-34.8 131.54-34.6L131.54-34.6 124.79-14.6 124.84-0.2Q124.84 0 124.64 0L124.64 0ZM129.59-0.25L129.59-0.25 135.78-34.6Q135.84-34.8 136.03-34.8L136.03-34.8 143.28-34.8Q143.48-34.8 143.53-34.6L143.53-34.6 149.49-0.25Q149.53 0 149.28 0L149.28 0 143.73 0Q143.53 0 143.48-0.25L143.48-0.25 142.94-3.9 136.13-3.9 135.59-0.25Q135.53 0 135.34 0L135.34 0 129.78 0Q129.59 0 129.59-0.25ZM139.38-23.3L137.13-9.25 141.94-9.25 139.88-23.3 139.59-25.15 139.38-23.3ZM176.88 0L160.73 0Q160.53 0 160.53-0.25L160.53-0.25 160.58-34.6Q160.58-34.8 160.78-34.8L160.78-34.8 176.83-34.8Q177.03-34.8 177.03-34.55L177.03-34.55 177.03-28.95Q177.03-28.75 176.83-28.75L176.83-28.75 166.58-28.75 166.58-20.95 176.83-20.95Q177.03-20.95 177.03-20.75L177.03-20.75 177.08-15.1Q177.08-14.9 176.88-14.9L176.88-14.9 166.58-14.9 166.58-6.15 176.88-6.15Q177.08-6.15 177.08-5.9L177.08-5.9 177.08-0.2Q177.08 0 176.88 0L176.88 0ZM191.68 0L185.93 0Q185.78 0 185.78-0.2L185.78-0.2 185.83-14.4 179.13-34.6Q179.08-34.8 179.28-34.8L179.28-34.8 184.83-34.8Q185.08-34.8 185.13-34.6L185.13-34.6 188.83-21.15 192.58-34.6Q192.63-34.8 192.83-34.8L192.83-34.8 198.43-34.8Q198.63-34.8 198.58-34.6L198.58-34.6 191.83-14.6 191.88-0.2Q191.88 0 191.68 0L191.68 0ZM217.68 0L201.53 0Q201.33 0 201.33-0.25L201.33-0.25 201.38-34.6Q201.38-34.8 201.58-34.8L201.58-34.8 217.63-34.8Q217.83-34.8 217.83-34.55L217.83-34.55 217.83-28.95Q217.83-28.75 217.63-28.75L217.63-28.75 207.38-28.75 207.38-20.95 217.63-20.95Q217.83-20.95 217.83-20.75L217.83-20.75 217.88-15.1Q217.88-14.9 217.68-14.9L217.68-14.9 207.38-14.9 207.38-6.15 217.68-6.15Q217.88-6.15 217.88-5.9L217.88-5.9 217.88-0.2Q217.88 0 217.68 0L217.68 0ZM235.57 0L229.97 0Q229.72 0 229.72-0.25L229.72-0.25 229.82-34.6Q229.82-34.8 230.02-34.8L230.02-34.8 239.62-34.8Q244.22-34.8 246.9-32 249.57-29.2 249.57-24.4L249.57-24.4Q249.57-20.85 248.17-18.25 246.77-15.65 244.52-14.25 242.27-12.85 239.62-12.85L239.62-12.85 235.82-12.85 235.82-0.25Q235.82 0 235.57 0L235.57 0ZM235.82-28.8L235.82-18.9 239.62-18.9Q241.22-18.9 242.4-20.43 243.57-21.95 243.57-24.4L243.57-24.4Q243.57-26.35 242.52-27.6 241.47-28.85 239.62-28.85L239.62-28.85 235.82-28.8ZM268.92 0L252.77 0Q252.57 0 252.57-0.25L252.57-0.25 252.62-34.55Q252.62-34.8 252.87-34.8L252.87-34.8 258.42-34.8Q258.67-34.8 258.67-34.55L258.67-34.55 258.62-6.15 268.92-6.15Q269.17-6.15 269.17-5.9L269.17-5.9 269.17-0.25Q269.17 0 268.92 0L268.92 0ZM280.62 0.5L280.62 0.5Q277.97 0.5 275.72-0.88 273.47-2.25 272.14-4.55 270.81-6.85 270.81-9.6L270.81-9.6 270.92-34.6Q270.92-34.8 271.12-34.8L271.12-34.8 276.72-34.8Q276.92-34.8 276.92-34.6L276.92-34.6 276.92-9.6Q276.92-7.9 277.99-6.73 279.06-5.55 280.62-5.55L280.62-5.55Q282.22-5.55 283.29-6.73 284.37-7.9 284.37-9.6L284.37-9.6 284.37-34.6Q284.37-34.8 284.56-34.8L284.56-34.8 290.17-34.8Q290.37-34.8 290.37-34.6L290.37-34.6 290.47-9.6Q290.47-6.8 289.14-4.5 287.81-2.2 285.59-0.85 283.37 0.5 280.62 0.5ZM302.91 0.5L302.91 0.5Q300.21 0.5 297.99-0.88 295.76-2.25 294.44-4.53 293.11-6.8 293.11-9.55L293.11-9.55 293.11-11.85Q293.11-12.1 293.36-12.1L293.36-12.1 298.96-12.1Q299.16-12.1 299.16-11.85L299.16-11.85 299.16-9.55Q299.16-7.9 300.26-6.73 301.36-5.55 302.91-5.55L302.91-5.55Q304.46-5.55 305.56-6.75 306.66-7.95 306.66-9.55L306.66-9.55Q306.66-11.4 304.26-12.75L304.26-12.75Q303.46-13.2 301.76-14.15 300.06-15.1 298.56-15.95L298.56-15.95Q295.81-17.55 294.49-19.98 293.16-22.4 293.16-25.45L293.16-25.45Q293.16-28.25 294.51-30.48 295.86-32.7 298.09-34 300.31-35.3 302.91-35.3L302.91-35.3Q305.56-35.3 307.79-33.98 310.01-32.65 311.34-30.43 312.66-28.2 312.66-25.45L312.66-25.45 312.66-21.35Q312.66-21.15 312.46-21.15L312.46-21.15 306.86-21.15Q306.66-21.15 306.66-21.35L306.66-21.35 306.61-25.45Q306.61-27.2 305.51-28.3 304.41-29.4 302.91-29.4L302.91-29.4Q301.36-29.4 300.26-28.23 299.16-27.05 299.16-25.45L299.16-25.45Q299.16-23.8 299.86-22.7 300.56-21.6 302.41-20.6L302.41-20.6Q302.66-20.45 303.39-20.08 304.11-19.7 304.96-19.23 305.81-18.75 306.49-18.4 307.16-18.05 307.31-17.95L307.31-17.95Q309.81-16.55 311.26-14.53 312.71-12.5 312.71-9.55L312.71-9.55Q312.71-6.7 311.39-4.42 310.06-2.15 307.84-0.83 305.61 0.5 302.91 0.5Z" opacity="1" transform="matrix(1,0,0,1,0,0)" fill="#152232" class="wordmark-text-0" data-fill-palette-color="primary" id="text-0"></path></svg></g></svg></g></svg></g></svg></g><g transform="matrix(1,0,0,1,0,0.11344028200608491)"><svg viewBox="0 0 74.26653922721404 45.376112802435514" height="45.376112802435514" width="74.26653922721404"><g><svg version="1.1" xmlns="http://www.w3.org/2000/svg" xmlns:xlink="http://www.w3.org/1999/xlink" x="0" y="0" viewBox="0 19.842 100 61.099000000000004" enable-background="new 0 19.842 100 61.099" xml:space="preserve" id="icon-0" width="74.26653922721404" height="45.376112802435514" class="icon-icon-0" data-fill-palette-color="accent"><path d="M100 45.879S83.555 19.842 50 19.842 0 45.879 0 45.879A141 141 0 0 1 16.858 38.752 34 34 0 0 0 15.882 46.821C15.882 65.635 31.188 80.941 50.001 80.941S84.121 65.635 84.121 46.821C84.121 44.042 83.781 41.342 83.15 38.754A141 141 0 0 1 100 45.879M56.272 37.774A5.546 5.546 0 0 1 61.819 43.318 5.546 5.546 0 0 1 50.728 43.318 5.546 5.546 0 0 1 56.272 37.774M50 72.698C35.732 72.698 24.124 61.089 24.124 46.821 24.124 42.878 25.026 39.145 26.611 35.797 31.417 34.555 35.63 33.781 39.099 33.309 35.157 36.494 32.632 41.36 32.632 46.82 32.632 56.412 40.408 64.189 50 64.189 59.593 64.189 67.367 56.412 67.367 46.82 67.367 41.359 64.842 36.493 60.901 33.309 64.375 33.782 68.592 34.557 73.406 35.802A25.7 25.7 0 0 1 75.877 46.822C75.877 61.089 64.267 72.698 50 72.698" fill="#5ebc67" data-fill-palette-color="accent"></path></svg></g></svg></g></svg></g><defs></defs></svg><rect width="395.52" height="36.41588073934412" fill="none" stroke="none" visibility="hidden"></rect></g></svg></g></svg>